<svg xmlns="http://www.w3.org/2000/svg" xmlns:xlink="http://www.w3.org/1999/xlink" version="1.1" x="0px" y="0px" viewBox="0 0 24 30" style="enable-background:new 0 0 24 24;" xml:space="preserve"><path d="M12,1.813C6.383,1.813,1.813,6.383,1.813,12S6.383,22.188,12,22.188S22.188,17.617,22.188,12S17.617,1.813,12,1.813z   M12,21.056c-2.067,0-3.968-0.704-5.494-1.874c0.368-1.564,1.385-2.894,2.801-3.662c0.754,0.631,1.684,1.009,2.693,1.009  c1.011,0,1.943-0.38,2.697-1.012c0.48,0.261,0.919,0.585,1.306,0.971c0.748,0.748,1.26,1.673,1.498,2.69  C15.974,20.35,14.07,21.056,12,21.056z M8.604,11.434c0-2.184,1.523-3.962,3.396-3.962s3.396,1.778,3.396,3.962  S13.873,15.396,12,15.396S8.604,13.618,8.604,11.434z M18.446,18.35c-0.328-0.998-0.885-1.906-1.642-2.664  c-0.393-0.394-0.833-0.732-1.308-1.018c0.645-0.88,1.033-2.007,1.033-3.234c0-2.809-2.031-5.094-4.528-5.094  s-4.528,2.285-4.528,5.094c0,1.227,0.388,2.354,1.033,3.234c-1.397,0.839-2.438,2.15-2.944,3.689  C3.945,16.721,2.944,14.476,2.944,12c0-4.993,4.062-9.056,9.056-9.056S21.056,7.007,21.056,12  C21.056,14.472,20.057,16.714,18.446,18.35z"/><text x="0" y="39" fill="#000000" font-size="5px" font-weight="bold" font-family="'Helvetica Neue', Helvetica, Arial-Unicode, Arial, Sans-serif">Created by AlePio</text><text x="0" y="44" fill="#000000" font-size="5px" font-weight="bold" font-family="'Helvetica Neue', Helvetica, Arial-Unicode, Arial, Sans-serif">from the Noun Project</text></svg>